<svg width="10" height="10" viewBox="0 0 10 10" fill="none" xmlns="http://www.w3.org/2000/svg">
<g id="Arrow Top Right">
<path id="Shape" fill-rule="evenodd" clip-rule="evenodd" d="M2.31246 7.68608C2.1172 7.49082 2.1172 7.17424 2.31246 6.97897L6.45891 2.83252L3.99935 2.83252C3.72321 2.83252 3.49935 2.60866 3.49935 2.33252C3.49935 2.05638 3.72321 1.83252 3.99935 1.83252L7.66602 1.83252C7.79862 1.83252 7.9258 1.8852 8.01957 1.97897C8.11334 2.07273 8.16602 2.19991 8.16602 2.33252L8.16602 5.99919C8.16602 6.27533 7.94216 6.49919 7.66602 6.49919C7.38987 6.49919 7.16602 6.27533 7.16602 5.99919L7.16602 3.53963L3.01957 7.68608C2.82431 7.88134 2.50772 7.88134 2.31246 7.68608Z" fill="#D5F5F8"/>
</g>
</svg>
