<svg width="10" height="10" viewBox="0 0 10 10" fill="none" xmlns="http://www.w3.org/2000/svg">
<g id="Arrow Top Right">
<path id="Shape" fill-rule="evenodd" clip-rule="evenodd" d="M2.37204 7.62732C2.20932 7.4646 2.20932 7.20078 2.37204 7.03806L6.66075 2.74935L4 2.74935C3.76988 2.74935 3.58333 2.5628 3.58333 2.33268C3.58333 2.10256 3.76988 1.91602 4 1.91602L7.66667 1.91602C7.77717 1.91602 7.88315 1.95991 7.9613 2.03805C8.03944 2.11619 8.08333 2.22218 8.08333 2.33268L8.08333 5.99935C8.08333 6.22947 7.89678 6.41602 7.66667 6.41602C7.43655 6.41602 7.25 6.22947 7.25 5.99935L7.25 3.33861L2.96129 7.62732C2.79858 7.79004 2.53476 7.79004 2.37204 7.62732Z" fill="#6B7280"/>
</g>
</svg>
