<svg width="14" height="12" viewBox="0 0 14 12" fill="none" xmlns="http://www.w3.org/2000/svg">
<g id="Eye Open">
<path id="Shape" fill-rule="evenodd" clip-rule="evenodd" d="M7.00039 8.6998C4.90335 8.6998 3.13047 7.64104 1.99844 5.99981C3.13047 4.35857 4.90335 3.2998 7.00039 3.2998C9.09743 3.2998 10.8703 4.35857 12.0023 5.99981C10.8703 7.64103 9.09743 8.6998 7.00039 8.6998ZM7.00039 2.2998C4.40825 2.2998 2.25678 3.68618 0.976391 5.73482C0.875057 5.89695 0.875057 6.10268 0.976392 6.26481C2.25678 8.31343 4.40825 9.6998 7.00039 9.6998C9.59253 9.6998 11.744 8.31343 13.0244 6.26481C13.1257 6.10268 13.1257 5.89695 13.0244 5.73482C11.744 3.68618 9.59253 2.2998 7.00039 2.2998ZM7.00039 7.5998C7.88405 7.5998 8.60039 6.88346 8.60039 5.9998C8.60039 5.11615 7.88405 4.3998 7.00039 4.3998C6.11674 4.3998 5.40039 5.11615 5.40039 5.9998C5.40039 6.88346 6.11674 7.5998 7.00039 7.5998Z" fill="#4B5563"/>
</g>
</svg>
