<svg width="14" height="12" viewBox="0 0 14 12" fill="none" xmlns="http://www.w3.org/2000/svg">
<g id="Eye None">
<path id="Shape" fill-rule="evenodd" clip-rule="evenodd" d="M11.7539 1.95365C11.9492 1.75839 11.9492 1.44181 11.7539 1.24654C11.5587 1.05128 11.2421 1.05128 11.0468 1.24654L9.52243 2.77095C8.74685 2.46714 7.90017 2.3001 7.00039 2.3001C4.40825 2.3001 2.25678 3.68647 0.976391 5.73511C0.875057 5.89724 0.875057 6.10297 0.976392 6.26511C1.62264 7.2991 2.4908 8.16439 3.52552 8.76786L2.24684 10.0465C2.05158 10.2418 2.05158 10.5584 2.24684 10.7537C2.4421 10.9489 2.75868 10.9489 2.95394 10.7537L4.47835 9.22925C5.25393 9.53305 6.10061 9.7001 7.00039 9.7001C9.59253 9.7001 11.744 8.31372 13.0244 6.26511C13.1257 6.10297 13.1257 5.89724 13.0244 5.73511C12.3781 4.7011 11.51 3.83581 10.4753 3.23234L11.7539 1.95365ZM8.7372 3.55618C8.19075 3.38935 7.60923 3.3001 7.00039 3.3001C4.90335 3.3001 3.13047 4.35887 1.99844 6.00011C2.59181 6.86037 3.36124 7.56061 4.26115 8.03223L8.7372 3.55618ZM5.26358 8.44401L9.73963 3.96796C10.6395 4.43958 11.409 5.13983 12.0023 6.0001C10.8703 7.64133 9.09743 8.7001 7.00039 8.7001C6.39155 8.7001 5.81003 8.61085 5.26358 8.44401Z" fill="#4B5563"/>
</g>
</svg>
