<svg width="12" height="12" viewBox="0 0 12 12" fill="none" xmlns="http://www.w3.org/2000/svg">
<g id="Magic Wand">
<path id="Shape" fill-rule="evenodd" clip-rule="evenodd" d="M11.1996 0.399023C11.1996 0.17811 11.0205 -0.000976562 10.7996 -0.000976562C10.5787 -0.000976562 10.3996 0.17811 10.3996 0.399023V0.799023H9.99961C9.7787 0.799023 9.59961 0.97811 9.59961 1.19902C9.59961 1.41994 9.7787 1.59902 9.99961 1.59902H10.3996V1.99902C10.3996 2.21994 10.5787 2.39902 10.7996 2.39902C11.0205 2.39902 11.1996 2.21994 11.1996 1.99902V1.59902H11.5996C11.8205 1.59902 11.9996 1.41994 11.9996 1.19902C11.9996 0.97811 11.8205 0.799023 11.5996 0.799023H11.1996V0.399023ZM9.48244 2.51618C9.63865 2.67239 9.63865 2.92565 9.48244 3.08186L8.68245 3.88186C8.52625 4.03807 8.27298 4.03808 8.11677 3.88187C7.96056 3.72566 7.96056 3.47239 8.11676 3.31618L8.91675 2.51618C9.07296 2.35997 9.32623 2.35997 9.48244 2.51618ZM7.88246 4.11618C8.03867 4.27239 8.03867 4.52566 7.88246 4.68187L2.28245 10.2819C2.12624 10.4381 1.87298 10.4381 1.71677 10.2819C1.56056 10.1257 1.56056 9.87239 1.71677 9.71618L7.31678 4.11618C7.47299 3.95997 7.72626 3.95997 7.88246 4.11618ZM11.1996 4.39902V4.79902H11.5996C11.8205 4.79902 11.9996 4.97811 11.9996 5.19902C11.9996 5.41994 11.8205 5.59902 11.5996 5.59902H11.1996V5.99902C11.1996 6.21994 11.0205 6.39902 10.7996 6.39902C10.5787 6.39902 10.3996 6.21994 10.3996 5.99902V5.59902H9.99961C9.7787 5.59902 9.59961 5.41994 9.59961 5.19902C9.59961 4.97811 9.7787 4.79902 9.99961 4.79902H10.3996V4.39902C10.3996 4.17811 10.5787 3.99902 10.7996 3.99902C11.0205 3.99902 11.1996 4.17811 11.1996 4.39902ZM7.19961 0.399023C7.19961 0.17811 7.02052 -0.000976562 6.79961 -0.000976562C6.5787 -0.000976562 6.39961 0.17811 6.39961 0.399023V0.799023H5.99961C5.7787 0.799023 5.59961 0.97811 5.59961 1.19902C5.59961 1.41994 5.7787 1.59902 5.99961 1.59902H6.39961V1.99902C6.39961 2.21994 6.5787 2.39902 6.79961 2.39902C7.02052 2.39902 7.19961 2.21994 7.19961 1.99902V1.59902H7.59961C7.82052 1.59902 7.99961 1.41994 7.99961 1.19902C7.99961 0.97811 7.82052 0.799023 7.59961 0.799023H7.19961V0.399023Z" fill="#9CA3AF"/>
</g>
</svg>
